<svg id="Layer_1" data-name="Layer 1" xmlns="http://www.w3.org/2000/svg" viewBox="0 0 2268.1 2275.1"><defs><style>.cls-1{fill:#ffb3d4;}.cls-2{fill:#d47038;}.cls-3{fill:#180700;}.cls-4{fill:#ff9551;}.cls-5{fill:#511d00;}.cls-6{fill:#ff7a2e;}</style></defs><g id="hesh"><path id="Shirt" class="cls-1" d="M2216.45,2031.38c-6.34-1.52-28.22-7.88-36.52-9.55s-38-4.12-45.27-5.94-8.15-5.74-12.37-7.26-28.08-1.84-35.62-4.26-35-19.06-45.86-22.7-35.32-5.17-46.48-8.2-92.35-27-107.14-31.82-39.83-13.32-45-15.74-17.86-23-39-32.35-62.42-26.16-73-27.77-188.37-.2-188.37-.2l-413.54,88.66s-24,4.5-38.05,15.35-39,19.88-48.48,20.78-26.72,2.68-26.72,2.68-86.07,34.78-96,36.58-46.66,21.23-100.1,27.51-130.91,35.17-145.4,34.71-24-13.16-58.85-13.65-49.81-.06-63,7.62-36.25,26.68-36.25,26.68-24.45-6.82-37.13,0-30.36,14.91-36.26,27.13S424,2188,424,2188s-7.25,4.07-10.87,8.14S284.3,2374,263.42,2411.55s-51.27,91.42-61.24,104.54-25.85,30.76-34,55.66-7.76,60.67-7.76,60.67-25.86,42.08-32.22,58.83-21.36,71.52-24.08,74.24-22.21,15.82-22.21,15.82l-7.71,9.05-29.28,52H2313V2043.3C2272.44,2038.53,2220.29,2032.3,2216.45,2031.38Z" transform="translate(-44.89 -567.26)"/><path id="Neck" class="cls-2" d="M1114.79,1849.66c.79,11.25,5.75,16.25,10.42,29.43a88.92,88.92,0,0,1,5,21.29c.91,10.27-2,20-7.7,38.94s-8.64,28.52-13.13,38c-2.33,4.93-4.63,9.21-5.44,15.85-1.1,9,1.25,16.91,4.08,23.54,9.16,21.52,26.7,38.16,34,44.83a387.9,387.9,0,0,0,48.91,38,428.19,428.19,0,0,0,61.58,34.87c33.14,15.15,60,21.94,79.25,26.72,60.49,15,108.55,15.76,120,15.85,35.54.27,69.23.52,111.39-12.23,70.82-21.42,113.84-63.9,126.34-77,27.19-28.45,40.11-53.93,55.25-83.77,23.09-45.54,21.94-63.21,18.11-74.72C1756,1908.83,1746,1899,1746,1899c-9.64-9.53-21.28-14-21.74-24-.16-3.54,1.15-6.41,0-12.23a30.44,30.44,0,0,0-4.53-10.87c-9.36-14.44-26.71-84.22-26.71-84.22-15-60.44-22.55-90.66-24.91-109.59-4.83-38.78-8.34-67-2.72-103.69,3.88-25.24,10.49-44,10-70.65a223.87,223.87,0,0,1,1.81-38.94c2.17-15.85,4.23-17.65,3.17-19.47-16.77-28.88-556.07,375.61-564.23,410.26A52.45,52.45,0,0,0,1114.79,1849.66Z" transform="translate(-44.89 -567.26)"/><path id="Hair_lul" data-name="Hair lul" class="cls-3" d="M1627.4,1461.13c3.39,5.73,10.21,5,33.2,16,3.73,1.78,8.75,4.28,10.57,9.36,1.72,4.81-.26,9.55-.91,11.17-7.07,17.91-15.13,73.91-8.15,76.68,2.94,1.17,9.78-6.62,12.38-14.49.8-2.42,1.23-4.93.91-13.89-.65-18-2.88-21.6-1.21-29.28.85-3.94,1.65-3.94,7.85-15.4,15.1-27.9,15.89-38,16-42.26a75,75,0,0,0-.91-11.77c-1.66-13.54-2.52-20.58-6-24.76-9.68-11.52-44.17-7-58.26,13.28C1632.06,1436.88,1621.89,1451.84,1627.4,1461.13Z" transform="translate(-44.89 -567.26)"/><path id="Face" class="cls-4" d="M1121.58,780.08s-153.5,38-188.37,78.34-68.83,89.2-78.34,138.11-15,37.13-21.29,115.92-14.49,76.53-10,89.21,4.08,16.3,13.13,27.62,19,95.1,19,95.1l-3.17,75.17s-6.79,10,11.78,76.53c7,18.34,38.49,96.9,38.49,96.9s24.68,72.45,51.62,110c55.25,94.64,38.94,85.58,49.36,110s39.85,59.77,60.23,62.94,48.9,0,48.9,0,4.53,3.62,23.1,7.7,143.54-15.85,181.13-28.08,139.92-39.85,221.43-124.07,100.53-253.13,100.53-253.13,14.49-34.87,27.17-22.19,29-1.81,29-1.81,13.59,14.94,50.72-32.84,31.47-43.24,41.88-70.64c0,0,32.08-89.43,1.89-158s-58.26-59.47-58.26-59.47S1425.07,792,1362,798.64C1337.57,801.23,1224.38,753.36,1121.58,780.08Z" transform="translate(-44.89 -567.26)"/><path id="Hair" class="cls-3" d="M1122.94,787.32s-153.66,37.74-180.52,73.36-49.82,46.19-78.19,118.64-30.49,161.51-30.49,161.51l-4.28,15.69S819.25,1002,819.25,1000.15s-7-22.65-4.83-28.23,22-32.45,19.92-46S820.45,884.83,809,881.81s-19,5.74-18.41-4.53-15.4-18.11-12.38-32.3,30.19-94.79,89.36-136.75S937,656.6,943.32,641.51s-7.85-30.49,14.79-35.62,11.17-29,29.89-30.19,50.72,16.9,89.66,16.9,27.55-29.88,80.34-24.75,69.4,27.47,112,34.41,132.23,12.08,150,28.08,70,11.47,102.64,43.77,93.12,66.14,115.93,110.49c46.79,91,67.62,140.83,70.79,149s31.7,180.23,31.7,180.23l-4,3.49s-84.92,6.42-98.19,69.39-1.5,65.69-6.94,62.52-53.43-19.93-53.43-32.15,10.42-48.91-5.89-78.34-19.92-71.55-55.24-125.44-57.51-70.19-74.27-96.9-25.81-73.36-60.22-93.29-44.38-29.43-105.06-39.39S1122.94,787.32,1122.94,787.32Z" transform="translate(-44.89 -567.26)"/><path id="Left_Frame" data-name="Left Frame" class="cls-5" d="M995.36,1237.09c-1.09-6.24-6-25.35-5.09-29.81l-31.47-58.75c-12.67,2.07-10.16-7.81-31.93-14.34-24.23-6.79-49.2,2.29-95.1,10-46,12.15-76.83,22.79-116.83,38.94-38.94,15-45.73,22.19-48,27.17s6.8,47.1,6.8,47.1-.46-3.62,14.49,5.43,10.63,26.7,19.47,59.32,22.1,57.59,33.51,71.7c9,11.19,27.62,35.17,62.94,39.25s59.14-2.28,87.4-10.42c25.66-7.4,70.46-38.51,82.32-50.08l.3-.44a19.81,19.81,0,0,1,1.81-2.27,22.94,22.94,0,0,1,1.3-2c7.24-15.76,13.9-24.15,19.78-66.61C1003.09,1257.66,996.92,1246.07,995.36,1237.09Zm-16.19,58.08c-7.81,33.17-8.74,50.82-25.25,69.17-10.93,12.16-27,21.3-35.88,26.83a188,188,0,0,1-40.76,19.25c-11.66,3.8-39,11.39-72.22,7.47-16.89-2-24.3-6.27-29.59-9.59-8.91-5.59-14.85-12-21.13-21.43-10.32-15.52-20.53-30.89-29.21-55.7-3.06-8.77-12.36-37.1-11.77-69.74a81.9,81.9,0,0,1,4.3-26.49,69.65,69.65,0,0,1,15.4-25.58,63,63,0,0,1,8.83-7.47c32-22.76,78.79-34,78.79-34a331.39,331.39,0,0,1,59.55-8.6,113,113,0,0,1,38.26,2.72c10.54,2.61,32,7.94,48.68,26.94,11.11,12.69,11.43,28,13.47,36.79C982.06,1231.92,986.74,1263,979.17,1295.17Z" transform="translate(-44.89 -567.26)"/><path id="Nose" class="cls-6" d="M1169.58,1398.19c-5-19.23-23.46-26.62-24.9-27.17-20.7-7.88-36.49,7.11-43.47.45-4.12-3.92-11.58-44.56-27.74-85.58-18.26-46.37-31-89.57-35.21-91.7-9.82-4.92-33.56-17.49-43.69-3.85-1.38,1.85-3.7,10.41-3.91,14.36s-2.24,7.54-4.92,11.3c-6.25,8.76-3.8,11.35-6.34,15.09-8.08,11.92-8.9,24.14-10,34.42-4.33,41.92-7.74,74.87-23.09,93.74a51,51,0,0,0-10.87,19.47c-1.58,5.64-1.53,10.93-1.36,21.28.25,15.36.38,23,3.17,29s5.35,7,17.21,18.11c18.08,16.94,16,18,23.09,23.1,17.07,12.43,37.25,12.56,44.38,12.23,26.54-1.26,51.5-17.48,49.81-24.46-1.94-8.07-39.15-2.35-40.3-9-.82-4.79,17.08-14.07,35.32-15.85,7.49-.74,32-3.14,49.81,11.32,5.25,4.27,9.12,9.37,15.4,9,4-.2,6.3-2.45,15.85-10.41,15.17-12.65,14.72-11.43,16.3-13.59C1170.39,1420.91,1172.34,1408.83,1169.58,1398.19Z" transform="translate(-44.89 -567.26)"/><path id="Right_Frame" data-name="Right Frame" class="cls-5" d="M1595.7,1051.77c-54.24-23.36-181.49-51.33-201.15-55.58a6.87,6.87,0,0,1-.83-.13,17.52,17.52,0,0,1-2.81-.14c-.61,0-1.22.06-1.84.06l-55.11,6.89c-11.52,2.18-29,5.57-50.26,10-47.53,9.82-71.82,14.9-97.36,23.09-25.89,8.31-43.42,16-62.49,24.46-38.59,17-51.06,26.25-59.77,34a152.86,152.86,0,0,0-26.27,30.34s-1.48,4.2-10.41,4.07a122.92,122.92,0,0,0-46.65,9.06c-16.43,8.81-5.88,7.25-20.37,10.42-.56.12-1.08.21-1.58.3l31.47,58.75c2.92-15,10-20.26,16.75-21.92,8.72-2.15,29.43,9.06,33.51,26.72s42.11,77.43,51.62,89.2,30.79,27.63,53.43,34.87,35.33,7.7,58.42,4.08,58.87-10.87,81.06-18.57,65.32-31.41,74.71-40.3,18.57-22.64,24.46-63.85,2.71-163,29.43-160.3,50.26,12.22,105.51,26.71,106,37.59,106,37.59,9.06-8.6,41.66,5.89c4.69,2.08,8.66,4.08,12,6a30.58,30.58,0,0,1,6.2-2.93c4.82-1.77,9.81-3.34,14.74-4.78a6.61,6.61,0,0,1,.63-.35,40.28,40.28,0,0,1,5.48-2.17c3.7-1.21,7.54-2.17,11.33-3.05a41.5,41.5,0,0,1,8.38-1.23C1702.14,1105.45,1642.06,1071.74,1595.7,1051.77Zm-236.1,178.41a67.77,67.77,0,0,1-4.23,15.42c-3.63,8.86-8.83,21.68-17.53,27.22a5,5,0,0,1-.67.52,5.14,5.14,0,0,1-.91.68,4.32,4.32,0,0,1-1,.68,16.78,16.78,0,0,1-3.24,2.4,4,4,0,0,1-.79.44c-1.13.86-2.29,1.67-3.51,2.46-35.12,22.83-90,35.62-90,35.62-20.77,4.85-31.43,7.27-44.83,7.1-10.24-.13-28.62-.57-48.3-10.72-11.86-6.11-19-13.1-27.77-21.74a195.61,195.61,0,0,1-38.34-53.43c-10.24-21.32-21.08-43.91-17.51-73.21,1-7.92,3.36-25.79,16.15-42.56,8.32-10.92,17.53-16.77,31.54-25.66,12.07-7.67,21.58-11.91,38.19-19.32,13.7-6.12,23.49-10.49,37.44-15.1a323.59,323.59,0,0,1,53-12.38,290.94,290.94,0,0,1,49.51-3c11.54.3,19.32,1.22,27.92,4.84A68,68,0,0,1,1335,1064c2.71,2.61,9.59,9.64,15.85,22.64,2.32,4.82,7.14,15.82,10.56,45.13,2.36,20.12,2.38,34.6,2.42,51.32C1363.91,1211.81,1362,1222.81,1359.6,1230.18Z" transform="translate(-44.89 -567.26)"/></g></svg>