<?xml version="1.0" encoding="utf-8"?>
<!-- Generator: Adobe Illustrator 24.2.1, SVG Export Plug-In . SVG Version: 6.00 Build 0)  -->
<svg version="1.1" id="Layer_1" xmlns="http://www.w3.org/2000/svg" xmlns:xlink="http://www.w3.org/1999/xlink" x="0px" y="0px"
	 viewBox="0 0 165 195" style="enable-background:new 0 0 165 195;" xml:space="preserve">
<style type="text/css">
	.st0{fill:url(#SVGID_1_);stroke:#1B0400;stroke-width:15;stroke-miterlimit:10;}
	.st1{fill:none;stroke:#1B0400;stroke-width:15;stroke-miterlimit:10;}
	.st2{fill:none;stroke:#1B0400;stroke-width:10;stroke-linecap:round;stroke-miterlimit:10;}
	.st3{fill:#F3FF4B;stroke:#1B0400;stroke-width:10;stroke-linecap:round;stroke-miterlimit:10;}
	.st4{fill:#FF8138;stroke:#1B0400;stroke-width:9;stroke-miterlimit:10;}
	.st5{fill:#84C4FF;stroke:#1B0400;stroke-width:10;stroke-linecap:round;stroke-miterlimit:10;}
</style>
<linearGradient id="SVGID_1_" gradientUnits="userSpaceOnUse" x1="146.5371" y1="13.5097" x2="-10.6574" y2="170.7042" gradientTransform="matrix(1 0 0 -1 4.17 200)">
	<stop  offset="0" style="stop-color:#0012DB"/>
	<stop  offset="1" style="stop-color:#FF367F"/>
</linearGradient>
<path class="st0" d="M157.5,60v114.2c0,7.3-6,13.3-13.3,13.3H20.8c-7.3,0-13.3-6-13.3-13.3V20.8c0-7.3,6-13.3,13.3-13.3h85.3
	c1.2,0,2.4,0.5,3.3,1.3C120,19.1,140,40,156.1,56.6C157,57.5,157.5,58.7,157.5,60z"/>
<path class="st1" d="M106.7,7.5v42c0,10,0,10,10,10h41"/>
<line class="st2" x1="65.4" y1="103.3" x2="138.3" y2="103.3"/>
<line class="st2" x1="65.4" y1="82.8" x2="138.3" y2="83.3"/>
<line class="st2" x1="65.4" y1="63.2" x2="86.2" y2="63.2"/>
<line class="st2" x1="65.4" y1="43.2" x2="86.2" y2="43.2"/>
<path class="st3" d="M38.7,39.2h2.5c6.6,0,12,5.4,12,12v2.5c0,6.6-5.4,12-12,12h-2.5c-6.6,0-12-5.4-12-12v-2.5
	C26.7,44.5,32,39.2,38.7,39.2z"/>
<path class="st4" d="M29.6,93.3L36,82.4c0.5-0.9,1.6-1.2,2.5-0.7c0.3,0.2,0.5,0.4,0.7,0.7l6.3,11l6.3,11c0.5,0.9,0.2,2-0.7,2.5
	c-0.3,0.2-0.6,0.2-0.9,0.2H37.5H24.8c-1,0-1.8-0.8-1.8-1.9c0-0.3,0.1-0.6,0.2-0.9L29.6,93.3z"/>
<line class="st2" x1="26.7" y1="123.3" x2="82.5" y2="123.3"/>
<line class="st2" x1="26.7" y1="143.3" x2="82.5" y2="143.3"/>
<line class="st2" x1="26.7" y1="163.4" x2="82.5" y2="163.4"/>
<line class="st2" x1="101.9" y1="164.3" x2="101.9" y2="152.4"/>
<line class="st2" x1="121.4" y1="164.3" x2="121.4" y2="140.5"/>
<line class="st5" x1="138.3" y1="163.4" x2="138.3" y2="123.3"/>
</svg>
