<?xml version="1.0" encoding="utf-8"?>
<!-- Generator: Adobe Illustrator 24.2.1, SVG Export Plug-In . SVG Version: 6.00 Build 0)  -->
<svg version="1.1" id="Layer_1" xmlns="http://www.w3.org/2000/svg" xmlns:xlink="http://www.w3.org/1999/xlink" x="0px" y="0px"
	 viewBox="0 0 165 195" style="enable-background:new 0 0 165 195;" xml:space="preserve">
<style type="text/css">
	.st0{fill:url(#SVGID_1_);stroke:#1B0400;stroke-width:15;stroke-miterlimit:10;}
	.st1{fill:none;stroke:#1B0400;stroke-width:15;stroke-miterlimit:10;}
	.st2{fill:none;stroke:#1B0400;stroke-width:10;stroke-linecap:round;stroke-miterlimit:10;}
</style>
<linearGradient id="SVGID_1_" gradientUnits="userSpaceOnUse" x1="146.7042" y1="13.5126" x2="-10.4874" y2="170.7042" gradientTransform="matrix(1 0 0 -1 4 200)">
	<stop  offset="0" style="stop-color:#0012DB"/>
	<stop  offset="1" style="stop-color:#FF367F"/>
</linearGradient>
<path class="st0" d="M157.5,60v114.2c0,7.3-6,13.3-13.3,13.3H20.8c-7.3,0-13.3-6-13.3-13.3V20.8c0-7.3,6-13.3,13.3-13.3h85.3
	c1.2,0,2.4,0.5,3.3,1.3C120,19.1,140,40,156.1,56.5C157,57.5,157.5,58.7,157.5,60z"/>
<path class="st1" d="M106.5,7.5v42c0,10,0,10,10,10h41"/>
<line class="st2" x1="26.5" y1="103.3" x2="98.7" y2="103.3"/>
<line class="st2" x1="24.4" y1="123.3" x2="73.3" y2="123.3"/>
<line class="st2" x1="24.4" y1="143.3" x2="122.2" y2="143.3"/>
<line class="st2" x1="24.4" y1="163.4" x2="135.4" y2="163.4"/>
<line class="st2" x1="26.5" y1="83.3" x2="126" y2="83.3"/>
<line class="st2" x1="26.5" y1="63.2" x2="80.9" y2="63.2"/>
<line class="st2" x1="26.5" y1="43.2" x2="86" y2="43.2"/>
</svg>
